<svg width="24" height="25" viewBox="0 0 24 25" fill="none" xmlns="http://www.w3.org/2000/svg">
<path d="M5.78979 13.6295L14.0128 20.8235C14.9818 21.6725 16.4998 20.9825 16.4998 19.694V5.30597C16.5 5.01761 16.4172 4.73528 16.2611 4.49281C16.105 4.25033 15.8823 4.05798 15.6198 3.9388C15.3572 3.81962 15.0658 3.77865 14.7805 3.8208C14.4953 3.86295 14.2282 3.98644 14.0113 4.17647L5.79129 11.3705C5.63018 11.5113 5.50105 11.6849 5.41257 11.8797C5.32409 12.0745 5.27832 12.286 5.27832 12.5C5.27832 12.7139 5.32409 12.9254 5.41257 13.1202C5.50105 13.3151 5.63018 13.4887 5.79129 13.6295H5.78979Z" fill="white"/>
</svg>
