<svg width="16" height="17" viewBox="0 0 16 17" fill="none" xmlns="http://www.w3.org/2000/svg">
<g clip-path="url(#clip0_3894_72234)">
<path d="M14 14.5V5L9.5 0.5H4C3.46957 0.5 2.96086 0.710714 2.58579 1.08579C2.21071 1.46086 2 1.96957 2 2.5V14.5C2 15.0304 2.21071 15.5391 2.58579 15.9142C2.96086 16.2893 3.46957 16.5 4 16.5H12C12.5304 16.5 13.0391 16.2893 13.4142 15.9142C13.7893 15.5391 14 15.0304 14 14.5ZM9.5 3.5C9.5 3.89782 9.65804 4.27936 9.93934 4.56066C10.2206 4.84196 10.6022 5 11 5H13V14.5C13 14.7652 12.8946 15.0196 12.7071 15.2071C12.5196 15.3946 12.2652 15.5 12 15.5H4C3.73478 15.5 3.48043 15.3946 3.29289 15.2071C3.10536 15.0196 3 14.7652 3 14.5V2.5C3 2.23478 3.10536 1.98043 3.29289 1.79289C3.48043 1.60536 3.73478 1.5 4 1.5H9.5V3.5Z" fill="black"/>
<path d="M4.603 14.5867C4.40751 14.5096 4.25018 14.3588 4.165 14.1667C3.97 13.7787 4.035 13.3907 4.245 13.0647C4.443 12.7577 4.771 12.4967 5.142 12.2777C5.61201 12.0113 6.10874 11.7951 6.624 11.6327C7.0235 10.9129 7.37817 10.1691 7.686 9.40566C7.50255 8.98837 7.35859 8.55481 7.256 8.11066C7.17 7.71066 7.137 7.31466 7.21 6.97466C7.285 6.62066 7.484 6.30266 7.86 6.15166C8.052 6.07466 8.26 6.03166 8.462 6.07466C8.56361 6.09629 8.65914 6.14027 8.74164 6.2034C8.82414 6.26654 8.89156 6.34724 8.939 6.43966C9.027 6.60366 9.059 6.79566 9.066 6.97766C9.073 7.16566 9.054 7.37366 9.019 7.59166C8.935 8.10166 8.749 8.72566 8.499 9.38566C8.77511 9.97557 9.10307 10.5398 9.479 11.0717C9.92411 11.0369 10.3717 11.0537 10.813 11.1217C11.177 11.1877 11.547 11.3167 11.773 11.5867C11.893 11.7307 11.966 11.9067 11.973 12.1047C11.98 12.2967 11.926 12.4867 11.835 12.6677C11.7562 12.8354 11.634 12.979 11.481 13.0837C11.3297 13.182 11.1513 13.2303 10.971 13.2217C10.64 13.2077 10.317 13.0257 10.038 12.8047C9.69867 12.5242 9.39297 12.2054 9.127 11.8547C8.45079 11.9317 7.78259 12.0675 7.13 12.2607C6.83121 12.7906 6.4901 13.2956 6.11 13.7707C5.818 14.1207 5.501 14.4267 5.183 14.5577C5.00013 14.6396 4.79314 14.65 4.603 14.5867ZM5.982 12.6857C5.81534 12.7623 5.66234 12.8417 5.523 12.9237C5.195 13.1177 4.982 13.3067 4.876 13.4707C4.782 13.6157 4.78 13.7207 4.836 13.8317C4.84667 13.853 4.85534 13.8677 4.862 13.8757L4.897 13.8637C5.034 13.8077 5.252 13.6287 5.532 13.2917C5.69145 13.0969 5.84162 12.8946 5.982 12.6857ZM7.622 11.3557C7.95599 11.278 8.29292 11.2137 8.632 11.1627C8.45018 10.8839 8.28003 10.5976 8.122 10.3047C7.96506 10.6592 7.79833 11.0093 7.622 11.3547V11.3557ZM10.068 11.8057C10.2187 11.969 10.3637 12.1057 10.503 12.2157C10.743 12.4057 10.91 12.4687 11.001 12.4717C11.0254 12.4755 11.0503 12.4701 11.071 12.4567C11.1128 12.424 11.1453 12.3809 11.165 12.3317C11.2004 12.2707 11.2206 12.2021 11.224 12.1317C11.223 12.1083 11.2138 12.086 11.198 12.0687C11.146 12.0067 10.998 11.9167 10.68 11.8597C10.4777 11.8263 10.2731 11.8086 10.068 11.8067V11.8057ZM8.078 8.29966C8.16142 8.02798 8.22821 7.75147 8.278 7.47166C8.30867 7.28366 8.32134 7.12866 8.316 7.00666C8.31652 6.93934 8.3057 6.8724 8.284 6.80866C8.23393 6.81461 8.18504 6.8281 8.139 6.84866C8.052 6.88366 7.981 6.95466 7.943 7.13166C7.903 7.32366 7.913 7.60066 7.989 7.95366C8.013 8.065 8.043 8.18033 8.079 8.29966H8.078Z" fill="black"/>
</g>
<defs>
<clipPath id="clip0_3894_72234">
<rect width="16" height="16" fill="white" transform="translate(0 0.5)"/>
</clipPath>
</defs>
</svg>
