<svg width="14" height="15" viewBox="0 0 14 15" fill="none" xmlns="http://www.w3.org/2000/svg">
<g clip-path="url(#clip0_3894_72225)">
<path d="M3.0625 6.1875C3.17853 6.1875 3.28981 6.23359 3.37186 6.31564C3.45391 6.39769 3.5 6.50897 3.5 6.625V7.5C3.5 8.42826 3.86875 9.3185 4.52513 9.97487C5.1815 10.6313 6.07174 11 7 11C7.92826 11 8.8185 10.6313 9.47487 9.97487C10.1313 9.3185 10.5 8.42826 10.5 7.5V6.625C10.5 6.50897 10.5461 6.39769 10.6281 6.31564C10.7102 6.23359 10.8215 6.1875 10.9375 6.1875C11.0535 6.1875 11.1648 6.23359 11.2469 6.31564C11.3289 6.39769 11.375 6.50897 11.375 6.625V7.5C11.375 8.58459 10.9722 9.63052 10.2446 10.4349C9.51705 11.2392 8.51665 11.7447 7.4375 11.8531V13.625H10.0625C10.1785 13.625 10.2898 13.6711 10.3719 13.7531C10.4539 13.8352 10.5 13.9465 10.5 14.0625C10.5 14.1785 10.4539 14.2898 10.3719 14.3719C10.2898 14.4539 10.1785 14.5 10.0625 14.5H3.9375C3.82147 14.5 3.71019 14.4539 3.62814 14.3719C3.54609 14.2898 3.5 14.1785 3.5 14.0625C3.5 13.9465 3.54609 13.8352 3.62814 13.7531C3.71019 13.6711 3.82147 13.625 3.9375 13.625H6.5625V11.8531C5.48335 11.7447 4.48295 11.2392 3.75539 10.4349C3.02784 9.63052 2.62499 8.58459 2.625 7.5V6.625C2.625 6.50897 2.67109 6.39769 2.75314 6.31564C2.83519 6.23359 2.94647 6.1875 3.0625 6.1875Z" fill="black"/>
<path d="M8.75 7.5C8.75 7.96413 8.56563 8.40925 8.23744 8.73744C7.90925 9.06563 7.46413 9.25 7 9.25C6.53587 9.25 6.09075 9.06563 5.76256 8.73744C5.43437 8.40925 5.25 7.96413 5.25 7.5V3.125C5.25 2.66087 5.43437 2.21575 5.76256 1.88756C6.09075 1.55937 6.53587 1.375 7 1.375C7.46413 1.375 7.90925 1.55937 8.23744 1.88756C8.56563 2.21575 8.75 2.66087 8.75 3.125V7.5ZM7 0.5C6.30381 0.5 5.63613 0.776562 5.14384 1.26884C4.65156 1.76113 4.375 2.42881 4.375 3.125V7.5C4.375 8.19619 4.65156 8.86387 5.14384 9.35616C5.63613 9.84844 6.30381 10.125 7 10.125C7.69619 10.125 8.36387 9.84844 8.85616 9.35616C9.34844 8.86387 9.625 8.19619 9.625 7.5V3.125C9.625 2.42881 9.34844 1.76113 8.85616 1.26884C8.36387 0.776562 7.69619 0.5 7 0.5Z" fill="black"/>
</g>
<defs>
<clipPath id="clip0_3894_72225">
<rect width="14" height="14" fill="white" transform="translate(0 0.5)"/>
</clipPath>
</defs>
</svg>
