<svg width="20" height="20" viewBox="0 0 20 20" fill="none" xmlns="http://www.w3.org/2000/svg">
<path d="M17.5 17.5V5.625L11.875 0H5C4.33696 0 3.70107 0.263392 3.23223 0.732233C2.76339 1.20107 2.5 1.83696 2.5 2.5V17.5C2.5 18.163 2.76339 18.7989 3.23223 19.2678C3.70107 19.7366 4.33696 20 5 20H15C15.663 20 16.2989 19.7366 16.7678 19.2678C17.2366 18.7989 17.5 18.163 17.5 17.5ZM11.875 3.75C11.875 4.24728 12.0725 4.72419 12.4242 5.07583C12.7758 5.42746 13.2527 5.625 13.75 5.625H16.25V17.5C16.25 17.8315 16.1183 18.1495 15.8839 18.3839C15.6495 18.6183 15.3315 18.75 15 18.75H5C4.66848 18.75 4.35054 18.6183 4.11612 18.3839C3.8817 18.1495 3.75 17.8315 3.75 17.5V2.5C3.75 2.16848 3.8817 1.85054 4.11612 1.61612C4.35054 1.3817 4.66848 1.25 5 1.25H11.875V3.75Z" fill="white"/>
<path d="M5.75388 17.6088C5.50951 17.5124 5.31284 17.3239 5.20637 17.0838C4.96262 16.5988 5.04387 16.1137 5.30637 15.7063C5.55387 15.3225 5.96388 14.9963 6.42763 14.7225C7.01513 14.3895 7.63605 14.1193 8.28012 13.9163C8.77949 13.0165 9.22284 12.0869 9.60762 11.1325C9.37831 10.6109 9.19836 10.0689 9.07012 9.51375C8.96262 9.01375 8.92137 8.51875 9.01262 8.09375C9.10637 7.65125 9.35512 7.25375 9.82512 7.065C10.0651 6.96875 10.3251 6.915 10.5776 6.96875C10.7046 6.99579 10.824 7.05076 10.9272 7.12967C11.0303 7.20859 11.1146 7.30947 11.1739 7.425C11.2839 7.63 11.3239 7.87 11.3326 8.0975C11.3414 8.3325 11.3176 8.5925 11.2739 8.865C11.1689 9.5025 10.9364 10.2825 10.6239 11.1075C10.969 11.8449 11.379 12.5502 11.8489 13.215C12.4053 13.1716 12.9648 13.1926 13.5164 13.2775C13.9714 13.36 14.4339 13.5212 14.7164 13.8587C14.8664 14.0388 14.9576 14.2587 14.9664 14.5062C14.9751 14.7462 14.9076 14.9838 14.7939 15.21C14.6953 15.4197 14.5426 15.5992 14.3514 15.73C14.1622 15.853 13.9392 15.9133 13.7139 15.9025C13.3001 15.885 12.8964 15.6575 12.5476 15.3813C12.1235 15.0307 11.7413 14.6322 11.4089 14.1937C10.5636 14.29 9.72836 14.4598 8.91262 14.7012C8.53913 15.3637 8.11274 15.9949 7.63762 16.5887C7.27262 17.0262 6.87637 17.4088 6.47888 17.5725C6.25028 17.675 5.99155 17.6879 5.75388 17.6088ZM7.47762 15.2325C7.26929 15.3283 7.07804 15.4275 6.90387 15.53C6.49387 15.7725 6.22762 16.0087 6.09512 16.2137C5.97762 16.395 5.97512 16.5262 6.04512 16.665C6.05846 16.6917 6.06929 16.71 6.07762 16.72L6.12137 16.705C6.29262 16.635 6.56512 16.4113 6.91513 15.99C7.11444 15.7465 7.30215 15.4937 7.47762 15.2325ZM9.52763 13.57C9.94511 13.473 10.3663 13.3925 10.7901 13.3288C10.5628 12.9802 10.3502 12.6224 10.1526 12.2563C9.95645 12.6994 9.74803 13.1371 9.52763 13.5687V13.57ZM12.5851 14.1325C12.7735 14.3367 12.9547 14.5075 13.1289 14.645C13.4289 14.8825 13.6376 14.9613 13.7514 14.965C13.7819 14.9698 13.813 14.9631 13.8389 14.9462C13.8912 14.9055 13.9317 14.8516 13.9564 14.79C14.0006 14.7138 14.0259 14.628 14.0301 14.54C14.0288 14.5108 14.0173 14.4829 13.9976 14.4613C13.9326 14.3838 13.7476 14.2712 13.3501 14.2C13.0972 14.1583 12.8414 14.1362 12.5851 14.1338V14.1325ZM10.0976 9.75C10.2019 9.4104 10.2854 9.06475 10.3476 8.715C10.386 8.48 10.4018 8.28625 10.3951 8.13375C10.3958 8.04959 10.3823 7.96592 10.3551 7.88625C10.2925 7.89368 10.2314 7.91054 10.1739 7.93625C10.0651 7.98 9.97637 8.06875 9.92887 8.29C9.87887 8.53 9.89137 8.87625 9.98637 9.3175C10.0164 9.45667 10.0539 9.60083 10.0989 9.75H10.0976Z" fill="white"/>
</svg>
