<svg width="18" height="19" viewBox="0 0 18 19" fill="none" xmlns="http://www.w3.org/2000/svg">
<path d="M12.105 2.72003L5.33247 4.97003C0.779966 6.49253 0.779966 8.97503 5.33247 10.49L7.34247 11.1575L8.00997 13.1675C9.52497 17.72 12.015 17.72 13.53 13.1675L15.7875 6.40253C16.7925 3.36503 15.1425 1.70753 12.105 2.72003ZM12.345 6.75503L9.49497 9.62003C9.38247 9.73253 9.23997 9.78503 9.09747 9.78503C8.95497 9.78503 8.81247 9.73253 8.69997 9.62003C8.48247 9.40253 8.48247 9.04253 8.69997 8.82503L11.55 5.96003C11.7675 5.74253 12.1275 5.74253 12.345 5.96003C12.5625 6.17753 12.5625 6.53753 12.345 6.75503Z" fill="black"/>
</svg>
