<svg width="38" height="38" viewBox="0 0 38 38" fill="none" xmlns="http://www.w3.org/2000/svg">
<path d="M33.6117 22.7996C31.5487 22.7996 29.8767 21.0983 29.8767 18.999C29.8767 16.9018 31.5487 15.2004 33.6117 15.2004C35.6728 15.2004 37.3448 13.4991 37.3448 11.3998C37.3448 9.30052 35.6728 7.59919 33.6117 7.59919C31.5487 7.59919 29.8767 5.89785 29.8767 3.8006C29.8767 1.70134 28.2047 0 26.1416 0H3.73509C1.67201 0 0 1.70134 0 3.8006V34.1994C0 36.2987 1.67201 38 3.73509 38C5.79616 38 7.46817 36.2987 7.46817 34.1994V26.6002C7.46817 24.5009 9.14217 22.7996 11.2033 22.7996H26.1416C28.2047 22.7996 29.8767 24.5009 29.8767 26.6002V34.1994C29.8767 36.2987 31.5487 38 33.6117 38C35.6728 38 37.3448 36.2987 37.3448 34.1994V26.6002C37.3448 24.5009 35.6728 22.7996 33.6117 22.7996ZM26.1416 15.2004H11.2033C9.14217 15.2004 7.46817 13.4991 7.46817 11.3998C7.46817 9.30052 9.14217 7.59919 11.2033 7.59919H26.1416C28.2047 7.59919 29.8767 9.30053 29.8767 11.3998C29.8767 13.4991 28.2047 15.2004 26.1416 15.2004Z" fill="url(#paint0_linear_4129_4124)"/>
<path d="M16.1416 10.9389V12.4676C16.1416 13.0381 15.6847 13.5031 15.124 13.5031C14.5614 13.5031 14.1064 13.0381 14.1064 12.4676V10.9389C14.1064 10.3663 14.5614 9.90141 15.124 9.90141C15.4033 9.90141 15.6587 10.0171 15.8423 10.2059C16.0279 10.3927 16.1416 10.6526 16.1416 10.9389Z" fill="url(#paint1_linear_4129_4124)"/>
<path d="M22.9512 10.9389V12.4676C22.9512 13.0381 22.4962 13.5031 21.9336 13.5031C21.3709 13.5031 20.916 13.0381 20.916 12.4676V10.9389C20.916 10.3663 21.3709 9.90141 21.9336 9.90141C22.2149 9.90141 22.4703 10.0171 22.6539 10.2059C22.8374 10.3927 22.9512 10.6526 22.9512 10.9389Z" fill="url(#paint2_linear_4129_4124)"/>
<defs>
<linearGradient id="paint0_linear_4129_4124" x1="1.64153" y1="12.0396" x2="28.2095" y2="31.2885" gradientUnits="userSpaceOnUse">
<stop stop-color="#51A3DA"/>
<stop offset="1" stop-color="#60269E"/>
</linearGradient>
<linearGradient id="paint1_linear_4129_4124" x1="14.1959" y1="11.0425" x2="16.0773" y2="11.8263" gradientUnits="userSpaceOnUse">
<stop stop-color="#51A3DA"/>
<stop offset="1" stop-color="#60269E"/>
</linearGradient>
<linearGradient id="paint2_linear_4129_4124" x1="21.0055" y1="11.0425" x2="22.8868" y2="11.8263" gradientUnits="userSpaceOnUse">
<stop stop-color="#51A3DA"/>
<stop offset="1" stop-color="#60269E"/>
</linearGradient>
</defs>
</svg>
